<svg xmlns="http://www.w3.org/2000/svg" width="142" height="144" fill="none" viewBox="0 0 142 144"><path fill="#8C1010" fill-rule="evenodd" stroke="#000" d="M14.5261 7.16545C24.0052 11.3262 39.5629 10.8336 49.9979 2.95829C64.5888 13.6492 78.6318 12.5517 92.0214 2.95829C100.948 9.41094 114.692 12.166 127.589 7.30087L133.37 15.3335C118.295 35.4805 123.875 54.7383 139.424 71.6859L132.895 78.3065C134.374 121.76 100.719 132.134 81.3935 133.211L71.0031 141.713L60.6902 133.338C26.1884 130.359 7.97202 112.157 9.09899 78.4181L2.38555 71.6353C15.503 57.4469 25.3599 38.059 8.50946 15.3291L14.5261 7.16545Z" clip-rule="evenodd"/><path fill="#004D98" fill-rule="evenodd" d="M15.3117 77.5432H126.329C129.247 108.264 109.729 124.857 80.0496 126.489L61.19 126.536C32.7948 124.495 11.6394 109.503 15.3117 77.5432Z" clip-rule="evenodd"/><path fill="#EDBB00" fill-rule="evenodd" stroke="#DEB405" stroke-width=".938" d="M49.9093 6.41225C40.1226 13.5856 24.6359 14.3403 15.7457 10.7537L12.185 15.3376C27.4607 36.8316 18.6841 58.4558 6.57188 71.6994L12.1495 77.6023C9.88618 109.999 28.7923 128.736 62.0287 130.664L71.0369 138.187L80.0273 130.545C99.3824 130.212 133.321 119.356 129.664 77.555L135.271 71.7467C121.047 55.9715 116.144 34.3645 129.889 15.3376L126.547 10.7833C114.385 14.78 100.472 12.5646 92.0993 6.51281C79.5415 15.5102 63.5939 16.439 49.9093 6.41225V6.41225ZM92.2117 12.5695C99.7623 17.2577 108.106 18.5917 122.489 17.3309C115.287 29.7927 114.509 44.6379 120.886 58.9708L21.069 58.9117C26.4375 46.1044 27.6693 31.3668 19.2531 17.047C29.6277 18.5532 39.762 18.1923 49.8679 12.6937C63.5756 20.7407 77.6775 20.8879 92.2117 12.5695ZM17.526 78.0282H124.565C127.379 107.648 108.56 123.643 79.9445 125.216L61.7566 125.263C34.3793 123.295 13.9854 108.842 17.526 78.0282Z" clip-rule="evenodd"/></svg>